<svg xmlns="http://www.w3.org/2000/svg" xmlns:xlink="http://www.w3.org/1999/xlink" width="254.5" height="614.769" viewBox="0 0 254.5 614.769">
  <defs>
    <clipPath id="clip-path">
      <rect id="Rectangle_257" data-name="Rectangle 257" width="254.5" height="614.769" fill="rgba(0,0,0,0)"/>
    </clipPath>
    <clipPath id="clip-path-3">
      <rect id="Rectangle_180" data-name="Rectangle 180" width="113.558" height="339.756" fill="rgba(0,0,0,0)"/>
    </clipPath>
    <clipPath id="clip-path-4">
      <rect id="Rectangle_181" data-name="Rectangle 181" width="55.123" height="124.33" fill="rgba(0,0,0,0)"/>
    </clipPath>
    <clipPath id="clip-path-5">
      <rect id="Rectangle_182" data-name="Rectangle 182" width="14.656" height="124.718" fill="rgba(0,0,0,0)"/>
    </clipPath>
    <clipPath id="clip-path-6">
      <rect id="Rectangle_183" data-name="Rectangle 183" width="20.011" height="13.578" fill="rgba(0,0,0,0)"/>
    </clipPath>
    <clipPath id="clip-path-7">
      <rect id="Rectangle_184" data-name="Rectangle 184" width="41.683" height="49.865" fill="rgba(0,0,0,0)"/>
    </clipPath>
    <clipPath id="clip-path-8">
      <path id="Path_278" data-name="Path 278" d="M73.307,445.5c-3.482.172-5.885,13.077-6.84,28.593l-.007.012c-1.467,23.721.446,53.549,7.037,53.416,5.971-.121,7.984-24.782,7.137-47.027a.024.024,0,0,0,0-.03c-.688-18.3-3.313-34.968-7.257-34.967l-.071,0" transform="translate(-65.995 -445.5)" fill="rgba(0,0,0,0)"/>
    </clipPath>
    <linearGradient id="linear-gradient" x1="-2.161" y1="4.097" x2="-2.127" y2="4.097" gradientUnits="objectBoundingBox">
      <stop offset="0" stop-color="#296328"/>
      <stop offset="0.046" stop-color="#296328"/>
      <stop offset="0.978" stop-color="#7a7b16"/>
      <stop offset="1" stop-color="#7a7b16"/>
    </linearGradient>
    <clipPath id="clip-path-10">
      <rect id="Rectangle_187" data-name="Rectangle 187" width="4.204" height="82.024" fill="rgba(0,0,0,0)"/>
    </clipPath>
    <clipPath id="clip-path-11">
      <rect id="Rectangle_188" data-name="Rectangle 188" width="4.739" height="82.024" fill="rgba(0,0,0,0)"/>
    </clipPath>
    <clipPath id="clip-path-12">
      <rect id="Rectangle_190" data-name="Rectangle 190" width="14.825" height="53.429" fill="rgba(0,0,0,0)"/>
    </clipPath>
    <clipPath id="clip-path-13">
      <path id="Path_281" data-name="Path 281" d="M73.5,544.909c-6.592.133-8.5-29.695-7.037-53.416l.007-.012s-.174,36.7,6.72,38c6.683,1.27,7.41-29.708,7.449-31.6.846,22.246-1.167,46.906-7.138,47.027" transform="translate(-65.995 -491.48)" fill="rgba(0,0,0,0)" clip-rule="evenodd"/>
    </clipPath>
    <linearGradient id="linear-gradient-2" x1="-2.249" y1="5.74" x2="-2.213" y2="5.74" gradientUnits="objectBoundingBox">
      <stop offset="0" stop-color="#c65766"/>
      <stop offset="1" stop-color="#fff"/>
    </linearGradient>
    <clipPath id="clip-path-14">
      <path id="Path_282" data-name="Path 282" d="M47.739,390.8c-3.481.185-5.839,13.1-6.74,28.617l-.007.012c-1.383,23.726.633,53.547,7.225,53.391,5.971-.141,7.9-24.809,6.973-47.051a.025.025,0,0,0,0-.031c-.752-18.294-3.433-34.94-7.374-34.94l-.076,0" transform="translate(-40.579 -390.795)" fill="rgba(0,0,0,0)"/>
    </clipPath>
    <linearGradient id="linear-gradient-3" x1="-1.263" y1="4.506" x2="-1.229" y2="4.506" xlink:href="#linear-gradient"/>
    <clipPath id="clip-path-16">
      <rect id="Rectangle_193" data-name="Rectangle 193" width="4.351" height="82.023" fill="rgba(0,0,0,0)"/>
    </clipPath>
    <clipPath id="clip-path-17">
      <rect id="Rectangle_194" data-name="Rectangle 194" width="4.877" height="82.023" fill="rgba(0,0,0,0)"/>
    </clipPath>
    <clipPath id="clip-path-18">
      <rect id="Rectangle_196" data-name="Rectangle 196" width="14.83" height="53.404" fill="rgba(0,0,0,0)"/>
    </clipPath>
    <clipPath id="clip-path-19">
      <path id="Path_285" data-name="Path 285" d="M48.217,490.218c-6.591.155-8.608-29.665-7.225-53.391l.007-.012s-.045,36.7,6.853,37.98c6.687,1.247,7.307-29.734,7.338-31.628.924,22.243-1,46.91-6.973,47.052" transform="translate(-40.58 -436.814)" fill="rgba(0,0,0,0)" clip-rule="evenodd"/>
    </clipPath>
    <linearGradient id="linear-gradient-4" x1="-1.33" y1="6.365" x2="-1.295" y2="6.365" xlink:href="#linear-gradient-2"/>
    <clipPath id="clip-path-20">
      <path id="Path_286" data-name="Path 286" d="M84.081,463.116l0,0s0,.01-.011.012c-15.616,20.878-23.254,57.587-6.634,65.19.052.024.1.047.156.065C94.9,536.078,115.5,506.01,121,480.619c.08-.375.125-.6.134-.643a.014.014,0,0,1,0-.011c2.838-13.735,1.187-25.98-7.91-29.976a16.664,16.664,0,0,0-6.759-1.449c-8.059,0-15.906,5.928-22.381,14.577" transform="translate(-68.092 -448.539)" fill="rgba(0,0,0,0)"/>
    </clipPath>
    <linearGradient id="linear-gradient-5" x1="-0.13" y1="3.616" x2="-0.124" y2="3.616" gradientUnits="objectBoundingBox">
      <stop offset="0" stop-color="#c8403d"/>
      <stop offset="0.046" stop-color="#c8403d"/>
      <stop offset="0.978" stop-color="#f07b39"/>
      <stop offset="1" stop-color="#f07b39"/>
    </linearGradient>
    <clipPath id="clip-path-21">
      <path id="Path_287" data-name="Path 287" d="M85.778,504.774a.084.084,0,0,1-.029.014.021.021,0,0,0-.009.008c19.573,8.354,29.835,5.147,33.792,2.971l0,0A9.158,9.158,0,0,0,121.5,506.4c-8.195-4.121-15.207-5.422-20.8-5.422-9.116,0-14.443,3.461-14.93,3.8" transform="translate(-85.739 -500.979)" fill="rgba(0,0,0,0)"/>
    </clipPath>
    <linearGradient id="linear-gradient-6" x1="-2.251" y1="8.403" x2="-2.227" y2="8.403" gradientUnits="objectBoundingBox">
      <stop offset="0" stop-color="#f07a39"/>
      <stop offset="0.022" stop-color="#f07a39"/>
      <stop offset="0.954" stop-color="#ed6d3f"/>
      <stop offset="1" stop-color="#ed6d3f"/>
    </linearGradient>
    <clipPath id="clip-path-23">
      <rect id="Rectangle_200" data-name="Rectangle 200" width="35.726" height="6.79" fill="rgba(0,0,0,0)"/>
    </clipPath>
    <clipPath id="clip-path-24">
      <path id="Path_289" data-name="Path 289" d="M77.11,541.264a.161.161,0,0,1-.025.017.018.018,0,0,0-.009.007c15.964,6.713,24.865,2.888,28.365.5l0,0a9.883,9.883,0,0,0,1.761-1.463,32.459,32.459,0,0,0-14.942-3.881,25.072,25.072,0,0,0-15.152,4.816" transform="translate(-77.076 -536.448)" fill="rgba(0,0,0,0)"/>
    </clipPath>
    <linearGradient id="linear-gradient-7" x1="-2.24" y1="9.049" x2="-2.213" y2="9.049" xlink:href="#linear-gradient-6"/>
    <clipPath id="clip-path-26">
      <rect id="Rectangle_203" data-name="Rectangle 203" width="30.095" height="5.345" fill="rgba(0,0,0,0)"/>
    </clipPath>
    <clipPath id="clip-path-27">
      <path id="Path_291" data-name="Path 291" d="M106.415,471.546a.127.127,0,0,1-.026.013.019.019,0,0,0-.008.007c11.887,7.521,20.3,4.591,23.818,2.609l0,0a11.155,11.155,0,0,0,1.831-1.245,21.761,21.761,0,0,0-13.555-4.861,23.259,23.259,0,0,0-12.063,3.475" transform="translate(-106.381 -468.071)" fill="rgba(0,0,0,0)"/>
    </clipPath>
    <linearGradient id="linear-gradient-8" x1="-2.851" y1="12.113" x2="-2.825" y2="12.113" xlink:href="#linear-gradient-6"/>
    <clipPath id="clip-path-29">
      <rect id="Rectangle_206" data-name="Rectangle 206" width="25.618" height="6.106" fill="rgba(0,0,0,0)"/>
    </clipPath>
    <clipPath id="clip-path-30">
      <rect id="Rectangle_208" data-name="Rectangle 208" width="53.039" height="66.48" fill="rgba(0,0,0,0)"/>
    </clipPath>
    <clipPath id="clip-path-31">
      <path id="Path_293" data-name="Path 293" d="M77.591,537.262c-.053-.019-.1-.042-.156-.065-16.62-7.6-8.983-44.313,6.633-65.19-.563,1.028-23.359,42.452-2.228,52.06,21.4,9.73,39.291-35.229,39.291-35.229a.014.014,0,0,0,0,.011c-.009.047-.054.268-.134.643-5.492,25.391-26.1,55.46-43.406,47.77" transform="translate(-68.091 -472.006)" fill="rgba(0,0,0,0)" clip-rule="evenodd"/>
    </clipPath>
    <linearGradient id="linear-gradient-9" x1="-0.47" y1="4.131" x2="-0.461" y2="4.131" xlink:href="#linear-gradient-2"/>
    <clipPath id="clip-path-32">
      <path id="Path_303" data-name="Path 303" d="M16.154,376.512c-5.562,1.267-5.618,17.662-2.741,38.444l0,.007a.074.074,0,0,1,0,.024c5.437,39.226,21.318,94.063,30.409,92.441a.284.284,0,0,0,.083-.024c9.355-1.994.922-57.146-10-95.224-.161-.562-.257-.892-.277-.961a.054.054,0,0,1-.006-.015c-5.744-19.8-12.129-34.748-16.969-34.748a2.294,2.294,0,0,0-.509.057" transform="translate(-11.531 -376.455)" fill="rgba(0,0,0,0)"/>
    </clipPath>
    <linearGradient id="linear-gradient-10" x1="0.098" y1="2.77" x2="0.107" y2="2.77" xlink:href="#linear-gradient-5"/>
    <clipPath id="clip-path-33">
      <path id="Path_304" data-name="Path 304" d="M29.519,477.138a.24.24,0,0,1,0,.041.061.061,0,0,0,0,.016c10.409-2.718,12.08-14.35,12.256-20.1h0a29.774,29.774,0,0,0-.055-3.245c-12.284.789-12.22,22-12.2,23.289" transform="translate(-29.517 -453.849)" fill="rgba(0,0,0,0)"/>
    </clipPath>
    <linearGradient id="linear-gradient-11" x1="-0.953" y1="13.15" x2="-0.916" y2="13.15" xlink:href="#linear-gradient-6"/>
    <clipPath id="clip-path-35">
      <rect id="Rectangle_212" data-name="Rectangle 212" width="12.276" height="23.289" fill="rgba(0,0,0,0)"/>
    </clipPath>
    <clipPath id="clip-path-36">
      <path id="Path_306" data-name="Path 306" d="M45.245,533.6a.288.288,0,0,1,0,.04.061.061,0,0,0,0,.016c8.438-2.352,9.368-13.846,9.294-19.55h0c-.025-1.947-.169-3.225-.169-3.225-10.05.375-9.192,21.443-9.128,22.718" transform="translate(-45.201 -510.879)" fill="rgba(0,0,0,0)"/>
    </clipPath>
    <linearGradient id="linear-gradient-12" x1="-1.708" y1="12.218" x2="-1.665" y2="12.218" xlink:href="#linear-gradient-6"/>
    <clipPath id="clip-path-38">
      <rect id="Rectangle_215" data-name="Rectangle 215" width="9.341" height="22.718" fill="rgba(0,0,0,0)"/>
    </clipPath>
    <clipPath id="clip-path-39">
      <path id="Path_308" data-name="Path 308" d="M19.423,421.288a.268.268,0,0,1,0,.036.065.065,0,0,0,0,.014c7.542,1.642,8.763-8.3,8.9-13.473h0c.045-1.766-.037-2.981-.037-2.981a5.528,5.528,0,0,0-2.331-.58c-6.562,0-6.54,15.918-6.529,16.983" transform="translate(-19.421 -404.305)" fill="rgba(0,0,0,0)"/>
    </clipPath>
    <linearGradient id="linear-gradient-13" x1="-1.235" y1="19.194" x2="-1.17" y2="19.194" xlink:href="#linear-gradient-6"/>
    <clipPath id="clip-path-41">
      <rect id="Rectangle_218" data-name="Rectangle 218" width="8.911" height="16.982" fill="rgba(0,0,0,0)"/>
    </clipPath>
    <clipPath id="clip-path-42">
      <rect id="Rectangle_220" data-name="Rectangle 220" width="34.522" height="96.259" fill="rgba(0,0,0,0)"/>
    </clipPath>
    <clipPath id="clip-path-43">
      <path id="Path_310" data-name="Path 310" d="M45.058,528.529a.3.3,0,0,1-.082.024c-9.092,1.623-24.973-53.215-30.411-92.44C14.9,437.9,28.3,509.887,39.829,507.746c11.677-2.167-5.05-75.417-5.05-75.417a.064.064,0,0,0,.006.015c.02.069.116.4.277.961,10.917,38.079,19.35,93.23,10,95.225" transform="translate(-14.565 -432.329)" fill="rgba(0,0,0,0)" clip-rule="evenodd"/>
    </clipPath>
    <linearGradient id="linear-gradient-14" x1="0.194" y1="3.482" x2="0.201" y2="3.482" xlink:href="#linear-gradient-2"/>
    <clipPath id="clip-path-44">
      <rect id="Rectangle_222" data-name="Rectangle 222" width="79.511" height="113.989" fill="rgba(0,0,0,0)"/>
    </clipPath>
    <clipPath id="clip-path-45">
      <path id="Path_320" data-name="Path 320" d="M100.947,73.337c2.018-9.928,1.631-25.3,4.158-32.534,2.507-7.237,13.6-19.223,22.688-20.956,9.072-1.733,19.57-3.16,35.531,11.395a28.88,28.88,0,0,1,3.914,4.709l-3.4,3.989,13.389,16.437a38.47,38.47,0,0,1,1.407,6.156c.367,2.854.061,7.44-.795,12.863a153.685,153.685,0,0,1-7.6,16.552c-4.505,7.583-5.565,18.672-5.565,18.672l.877,1.183a34.14,34.14,0,0,1-3.506,4.811c-7.869,8.785-22.484,14.228-34,16.144l-.245.021c23.178-3.628,40.357-23.8,37.08-40.2-1.068-5.346-9.785-3.527-18.774-1.916a18.4,18.4,0,0,1-14.861-3.71c-2.466-21.282,4.28-40.057,4.28-40.057,9.867,4.036,31.577,15.84,31.577,15.84,1.769-4.752-3.261-20.147-4.532-23.885-2.245-2.239-7.64-6.8-14.915-7.488-9.683-.9-37.733,18.713-37.733,18.713s10.254,21.751,4.363,30.679c-5.891,8.909-14.433,6.034-15-1.794a33.477,33.477,0,0,0,1.672-5.626" transform="translate(-99.275 -18.79)" fill="rgba(0,0,0,0)" clip-rule="evenodd"/>
    </clipPath>
    <linearGradient id="linear-gradient-15" x1="-0.774" y1="5.213" x2="-0.767" y2="5.213" gradientUnits="objectBoundingBox">
      <stop offset="0" stop-color="#fee3d3"/>
      <stop offset="0.994" stop-color="#8b3d89"/>
      <stop offset="1" stop-color="#8b3d89"/>
    </linearGradient>
    <clipPath id="clip-path-46">
      <path id="Path_321" data-name="Path 321" d="M83.266,481.933a12.728,12.728,0,1,0,12.728-12.728,12.728,12.728,0,0,0-12.728,12.728" transform="translate(-83.266 -469.205)" fill="rgba(0,0,0,0)"/>
    </clipPath>
    <linearGradient id="linear-gradient-16" x1="-2.034" y1="12.688" x2="-2.01" y2="12.688" gradientUnits="objectBoundingBox">
      <stop offset="0" stop-color="#b6002b"/>
      <stop offset="0.046" stop-color="#b6002b"/>
      <stop offset="0.978" stop-color="#dc1114"/>
      <stop offset="1" stop-color="#dc1114"/>
    </linearGradient>
    <clipPath id="clip-path-48">
      <rect id="Rectangle_226" data-name="Rectangle 226" width="25.468" height="13.683" fill="rgba(0,0,0,0)"/>
    </clipPath>
    <clipPath id="clip-path-49">
      <path id="Path_324" data-name="Path 324" d="M83.266,488.137s-.089,9.315,13.1,9.315,12.356-9.315,12.356-9.315.325,13.683-12.728,13.683-12.728-13.683-12.728-13.683" transform="translate(-83.265 -488.137)" fill="rgba(0,0,0,0)" clip-rule="evenodd"/>
    </clipPath>
    <linearGradient id="linear-gradient-17" x1="-1.933" y1="22.743" x2="-1.91" y2="22.743" xlink:href="#linear-gradient-2"/>
    <clipPath id="clip-path-50">
      <rect id="Rectangle_227" data-name="Rectangle 227" width="2.027" height="2.621" fill="rgba(0,0,0,0)"/>
    </clipPath>
    <clipPath id="clip-path-51">
      <rect id="Rectangle_229" data-name="Rectangle 229" width="22.857" height="22.608" fill="rgba(0,0,0,0)"/>
    </clipPath>
    <clipPath id="clip-path-52">
      <path id="Path_327" data-name="Path 327" d="M211.119,142.32s16.636-13.942,20.748-11.894,1.337,10.772-.942,15.377-8.7,7.026-8.7,7.026,5.917-3.255,7.928-7.74,1.549-9.1.669-10-6.453.137-6.851,1.081.445,5.29-1.177,8.695-8.079,4.177-8.777,3.411,1.877-5.412,1.348-6.078-4.244.118-4.244.118" transform="translate(-211.119 -130.221)" fill="rgba(0,0,0,0)" clip-rule="evenodd"/>
    </clipPath>
    <linearGradient id="linear-gradient-18" x1="-4.076" y1="17.035" x2="-4.056" y2="17.035" xlink:href="#linear-gradient-15"/>
    <clipPath id="clip-path-53">
      <rect id="Rectangle_231" data-name="Rectangle 231" width="10.636" height="14.017" fill="rgba(0,0,0,0)"/>
    </clipPath>
    <clipPath id="clip-path-54">
      <path id="Path_328" data-name="Path 328" d="M223.092,136.42s1.928,6.473.165,10.269-6.672,4.126-7.549,3.5,1.24-5.049.919-5.908-3.263-.751-3.263-.751,7.39-5.675,9.728-7.1" transform="translate(-213.364 -136.42)" fill="rgba(0,0,0,0)" clip-rule="evenodd"/>
    </clipPath>
    <linearGradient id="linear-gradient-19" x1="-7.422" y1="33.517" x2="-7.386" y2="33.517" xlink:href="#linear-gradient-15"/>
    <clipPath id="clip-path-55">
      <rect id="Rectangle_233" data-name="Rectangle 233" width="20.874" height="9.474" fill="rgba(0,0,0,0)"/>
    </clipPath>
    <clipPath id="clip-path-56">
      <path id="Path_350" data-name="Path 350" d="M125.611,134.368s-.424.924-7.569,1.916-11.8.991-12.876-1.422c0,0,.9,6.711,7.276,8.98a8.166,8.166,0,0,0,4.055-1.3s2.607-3.376,8.5-3.5c0,0,1.861-1.5.616-4.672" transform="translate(-105.166 -134.368)" fill="rgba(0,0,0,0)"/>
    </clipPath>
    <linearGradient id="linear-gradient-20" x1="-3.015" y1="56.07" x2="-2.987" y2="56.07" xlink:href="#linear-gradient-15"/>
    <clipPath id="clip-path-57">
      <rect id="Rectangle_234" data-name="Rectangle 234" width="78.18" height="81.722" fill="rgba(0,0,0,0)"/>
    </clipPath>
    <clipPath id="clip-path-58">
      <rect id="Rectangle_235" data-name="Rectangle 235" width="40.288" height="39.713" fill="rgba(0,0,0,0)"/>
    </clipPath>
    <clipPath id="clip-path-59">
      <rect id="Rectangle_236" data-name="Rectangle 236" width="58.862" height="37.466" fill="rgba(0,0,0,0)"/>
    </clipPath>
    <clipPath id="clip-path-60">
      <rect id="Rectangle_237" data-name="Rectangle 237" width="27.359" height="26.118" fill="rgba(0,0,0,0)"/>
    </clipPath>
    <clipPath id="clip-path-61">
      <rect id="Rectangle_238" data-name="Rectangle 238" width="33.152" height="18.856" fill="rgba(0,0,0,0)"/>
    </clipPath>
    <clipPath id="clip-path-62">
      <rect id="Rectangle_239" data-name="Rectangle 239" width="12.115" height="15.64" fill="rgba(0,0,0,0)"/>
    </clipPath>
    <clipPath id="clip-path-63">
      <rect id="Rectangle_240" data-name="Rectangle 240" width="6.33" height="11.393" fill="rgba(0,0,0,0)"/>
    </clipPath>
    <clipPath id="clip-path-64">
      <rect id="Rectangle_241" data-name="Rectangle 241" width="11.891" height="9.146" fill="rgba(0,0,0,0)"/>
    </clipPath>
    <clipPath id="clip-path-65">
      <rect id="Rectangle_242" data-name="Rectangle 242" width="106.043" height="99.034" fill="rgba(0,0,0,0)"/>
    </clipPath>
    <clipPath id="clip-path-66">
      <rect id="Rectangle_243" data-name="Rectangle 243" width="17.864" height="36.565" fill="rgba(0,0,0,0)"/>
    </clipPath>
    <clipPath id="clip-path-67">
      <rect id="Rectangle_244" data-name="Rectangle 244" width="47.867" height="36.629" fill="rgba(0,0,0,0)"/>
    </clipPath>
    <clipPath id="clip-path-68">
      <rect id="Rectangle_245" data-name="Rectangle 245" width="24.172" height="22.273" fill="rgba(0,0,0,0)"/>
    </clipPath>
    <clipPath id="clip-path-69">
      <rect id="Rectangle_246" data-name="Rectangle 246" width="28.18" height="40.264" fill="rgba(0,0,0,0)"/>
    </clipPath>
    <clipPath id="clip-path-70">
      <rect id="Rectangle_247" data-name="Rectangle 247" width="12.962" height="26.115" fill="rgba(0,0,0,0)"/>
    </clipPath>
    <clipPath id="clip-path-71">
      <rect id="Rectangle_248" data-name="Rectangle 248" width="57.513" height="8.095" fill="rgba(0,0,0,0)"/>
    </clipPath>
    <clipPath id="clip-path-72">
      <rect id="Rectangle_249" data-name="Rectangle 249" width="20.147" height="77.047" fill="rgba(0,0,0,0)"/>
    </clipPath>
    <clipPath id="clip-path-73">
      <rect id="Rectangle_250" data-name="Rectangle 250" width="122.567" height="93.031" fill="rgba(0,0,0,0)"/>
    </clipPath>
    <clipPath id="clip-path-74">
      <rect id="Rectangle_251" data-name="Rectangle 251" width="65.651" height="61.878" fill="rgba(0,0,0,0)"/>
    </clipPath>
    <clipPath id="clip-path-75">
      <rect id="Rectangle_252" data-name="Rectangle 252" width="38.305" height="193.101" fill="rgba(0,0,0,0)"/>
    </clipPath>
    <clipPath id="clip-path-76">
      <rect id="Rectangle_253" data-name="Rectangle 253" width="0.483" height="1.359" fill="rgba(0,0,0,0)"/>
    </clipPath>
    <clipPath id="clip-path-77">
      <rect id="Rectangle_254" data-name="Rectangle 254" width="32.715" height="144.241" fill="rgba(0,0,0,0)"/>
    </clipPath>
  </defs>
  <g id="Group_218" data-name="Group 218" opacity="0.3">
    <g id="Group_217" data-name="Group 217" clip-path="url(#clip-path)">
      <g id="Group_33" data-name="Group 33">
        <g id="Group_32" data-name="Group 32" clip-path="url(#clip-path)">
          <path id="Path_255" data-name="Path 255" d="M140.6,167.519s.97,33.522,18.5,49.347l-2.015,4.675s-24.4-14.437-24.326-27.922,7.838-26.1,7.838-26.1" transform="translate(-50.197 -63.34)" fill="#13162c"/>
          <path id="Path_256" data-name="Path 256" d="M323.719,228.067s.56,14.576,3.358,23.535,22.784,18.514,26.228,24.685-14.793,25.455-14.793,25.455l-7.643-12.663s11.3-17.007,10.229-19.777-26.677-8.145-30.6-15.013,13.218-26.222,13.218-26.222" transform="translate(-117.182 -86.234)" fill="#13162c"/>
          <path id="Path_257" data-name="Path 257" d="M110.088,437.731s-7.443,3.865-8.022,3.865-3.733-1.062-6.63-1.448-5.987,1.288-7.66.9-3.412-9.905-3.412-9.905,23.169,4.287,25.725,6.587" transform="translate(-31.898 -163.019)" fill="#711434"/>
          <path id="Path_258" data-name="Path 258" d="M190.352,655.91l.021.02c2.345,23.748,5.055,38.3,5.524,39.343a60.885,60.885,0,0,0,4.077,5.566l.836,1.121a20.2,20.2,0,0,1,1.61,2.588c1.059,2.119,7,59.427,10.894,97.52,12.549-.5,25.1-1.021,37.645-1.5,2.624-18.576,4.944-38.727,5.665-55.742,1.916-45.56-13.271-52.125-15.33-63.336-2.059-11.192,21.14-150.278,19.2-158.758-1.956-8.48-64.6-27.377-64.6-27.377s-9.968,32.534-9.194,93.832c.326,26.174,1.917,49.005,3.649,66.72" transform="translate(-70.578 -187.299)" fill="#13162c" fill-rule="evenodd"/>
          <path id="Path_259" data-name="Path 259" d="M190.352,655.91l.021.02s31.515,25.563,31.983,29.62-15.818,8.949-15.818,8.949l-10.641.774,4.077,5.566.836,1.121a20.2,20.2,0,0,1,1.61,2.588c1.059,2.119,7,59.427,10.894,97.52,12.549-.5,25.1-1.021,37.645-1.5,2.624-18.576,4.944-38.727,5.665-55.742,1.916-45.56-13.271-52.125-15.33-63.336-2.059-11.192,21.14-150.278,19.2-158.758-1.956-8.48-64.6-27.377-64.6-27.377s-9.968,32.534-9.194,93.832c.326,26.174,1.917,49.005,3.649,66.72" transform="translate(-70.578 -187.299)" fill="#13162c" fill-rule="evenodd"/>
          <path id="Path_260" data-name="Path 260" d="M215.221,488.435c6.461,4.891,33.512,17.994,33.512,17.994s-6.521,117.865-6.189,145.581v.392a42.956,42.956,0,0,0,.241,4.68C244.6,668.162,246.921,680,246.921,680c1.257,33.6.05,68.4-1.68,96.732,15.1-.6,30.2-1.152,45.3-1.56,3.887-12.495,6.853-24.685,7.1-33.613.724-25.813-15.881-47.4-16.274-60.774a11.89,11.89,0,0,1,.06-1.812c.363-3.865,4.438-15.881,10.084-31.64a.092.092,0,0,1,.03-.06c.06-.151.181-.514.362-1.057.151-.453.332-.906.483-1.359,13.616-37.92,35.324-95.373,37.437-115.481,3.08-29.1-1.751-56.789-19.111-72.035a69.133,69.133,0,0,0-7.367-5.585c-1.962-1.329-4.045-2.6-6.159-3.8-17.782-10.174-39.46-16.816-39.46-16.816l-56.216,39.943s7.307,12.439,13.707,17.36" transform="translate(-76.194 -163.015)" fill="#13162c" fill-rule="evenodd"/>
          <g id="Group_19" data-name="Group 19" transform="translate(132.016 272.425)" style="mix-blend-mode: soft-light;isolation: isolate">
            <g id="Group_18" data-name="Group 18">
              <g id="Group_17" data-name="Group 17" clip-path="url(#clip-path-3)">
                <path id="Path_261" data-name="Path 261" d="M344.674,470.554c3.46,4.336,5.478,9.661,6.751,15.061a84.87,84.87,0,0,1,1.884,16.611,189.938,189.938,0,0,1-2.6,33.442c-3.49,22.149-9.263,43.893-15.887,65.311-6.711,21.4-14.215,42.575-22.978,63.225l-.022.053-.011.05c-.728,3.108-1.4,6.219-2,9.353a49.943,49.943,0,0,0-1.2,9.591c.647,3.392,2.014,6.165,3.13,9.18l3.518,8.861c4.587,11.82,8.772,23.9,10.7,36.425,2.059,12.542-.169,25.31-3.1,37.606-.2.832-.423,1.66-.636,2.49l.537-.015c.211-.78.43-1.558.634-2.341,3.165-12.255,5.484-25.149,3.452-37.868-1.881-12.659-6.031-24.811-10.57-36.687l-3.476-8.886c-1.089-2.93-2.47-5.979-3.006-8.843a49.671,49.671,0,0,1,1.229-9.28c.611-3.091,1.294-6.178,2.026-9.242a648.918,648.918,0,0,0,23.23-63.226c6.534-21.5,12.213-43.323,15.608-65.58A190.9,190.9,0,0,0,354.32,502.2a85.783,85.783,0,0,0-1.991-16.794c-1.322-5.479-3.4-10.917-7-15.384-14.315-17.316-35.089-29.827-57.563-31.962,11.195,1.08,21.939,5.138,31.613,10.712a96.6,96.6,0,0,1,25.3,21.784" transform="translate(-240.822 -438.058)" fill="#fff"/>
                <path id="Path_262" data-name="Path 262" d="M356.957,473.745h.1l-.045-1.558c-.183-.016-14.837-.03-36.021-26.774l-1.221.968c21.131,26.676,35.758,27.364,37.191,27.364" transform="translate(-252.922 -440.839)" fill="#fff"/>
                <path id="Path_263" data-name="Path 263" d="M355.509,479.155l.481-1.479c-36.444-11.858-47.281-35.993-47.386-36.236l-1.43.621c.108.249,11.23,25.026,48.336,37.095" transform="translate(-248.16 -439.336)" fill="#fff"/>
                <path id="Path_264" data-name="Path 264" d="M230.856,492.951a52.521,52.521,0,0,0,4.088,11.331,65.478,65.478,0,0,0,6.351,10.3,54.717,54.717,0,0,0,8.363,8.757,46.024,46.024,0,0,0,10.162,6.478,72.781,72.781,0,0,1-9.368-7.376,62.3,62.3,0,0,1-7.919-8.8,77.432,77.432,0,0,1-6.53-9.908,90.612,90.612,0,0,1-5.146-10.778" transform="translate(-219.304 -458.814)" fill="#fff"/>
                <path id="Path_265" data-name="Path 265" d="M212.281,497.546a17.97,17.97,0,0,0,1.185,5.557A30.029,30.029,0,0,0,216,508.234a41.73,41.73,0,0,0,7.33,8.772l.062.058.094.052c4.114,2.245,8.323,4.31,12.489,6.457,4.216,2.05,8.428,4.109,12.742,5.975-3.98-2.5-8.063-4.8-12.14-7.118-4.129-2.217-8.215-4.517-12.394-6.637l.156.109a50.157,50.157,0,0,1-7.417-8.27,27.4,27.4,0,0,1-4.639-10.086" transform="translate(-212.281 -460.551)" fill="#fff"/>
              </g>
            </g>
          </g>
          <g id="Group_22" data-name="Group 22" transform="translate(166.355 489.384)" opacity="0.4" style="mix-blend-mode: multiply;isolation: isolate">
            <g id="Group_21" data-name="Group 21">
              <g id="Group_20" data-name="Group 20" clip-path="url(#clip-path-4)">
                <path id="Path_266" data-name="Path 266" d="M271.86,814.529c1.261,33.6.058,68.4-1.67,96.729,15.1-.6,30.192-1.152,45.293-1.56,3.889-12.5,6.86-24.695,7.116-33.628.713-25.807-15.9-47.394-16.267-60.747l-.02-.041-1.549-18.917-13.709,9.279s-9.856,4.052-11.2,2.707c-1.366-1.346-12.089-16.7-12.353-21.425a35.741,35.741,0,0,0,.244,4.688c1.794,11.069,4.118,22.913,4.118,22.913" transform="translate(-267.498 -786.927)" fill="#5e1765" fill-rule="evenodd"/>
              </g>
            </g>
          </g>
          <path id="Path_267" data-name="Path 267" d="M201.513,471.077s7.3,12.455,13.719,17.348c6.442,4.892,33.493,18.02,33.493,18.02s-6.523,117.866-6.177,145.569c0-8.807,7.155-132.666,8.684-141.757,1.529-9.276,19.3-45.785,28.09-53.062a45.941,45.941,0,0,1,17.858-9.214l.021-.021c-17.8-10.172-39.465-16.818-39.465-16.818Z" transform="translate(-76.194 -163.019)" fill="#13162c" fill-rule="evenodd"/>
          <g id="Group_25" data-name="Group 25" transform="translate(166.355 488.996)" opacity="0.4" style="mix-blend-mode: multiply;isolation: isolate">
            <g id="Group_24" data-name="Group 24">
              <g id="Group_23" data-name="Group 23" clip-path="url(#clip-path-5)">
                <path id="Path_268" data-name="Path 268" d="M271.86,814.293c1.262,33.595.059,68.4-1.669,96.729q2.9-.115,5.805-.226c1.811-10.8,3.169-20.413,3.324-25.685.53-17.266-2.956-62.7-2.956-62.7l3.1,3.608,2.69,1.671-3.587-7.991-4.261-11.844-4.057-14.269L267.5,786.3v.387a35.74,35.74,0,0,0,.244,4.688c1.794,11.069,4.118,22.913,4.118,22.913" transform="translate(-267.498 -786.304)" fill="#5e1765" fill-rule="evenodd"/>
              </g>
            </g>
          </g>
          <g id="Group_28" data-name="Group 28" transform="translate(125.319 503.672)" opacity="0.4" style="mix-blend-mode: multiply;isolation: isolate">
            <g id="Group_27" data-name="Group 27">
              <g id="Group_26" data-name="Group 26" clip-path="url(#clip-path-6)">
                <path id="Path_269" data-name="Path 269" d="M221.524,809.9,208.036,823.48l-6.523-9.275,10.641-.774Z" transform="translate(-201.513 -809.902)" fill="#5e1765" fill-rule="evenodd"/>
              </g>
            </g>
          </g>
          <path id="Path_270" data-name="Path 270" d="M97.35,346.758S92.487,358.331,86.564,369.4,83.541,399,87.661,403.76c0,0,16.091,5.856,22.465-9.6s12.263-34.285,12.263-34.285-11.781-15.353-25.039-13.118" transform="translate(-31.46 -131.028)" fill="#e9645a"/>
          <path id="Path_271" data-name="Path 271" d="M117.983,385.649S105.4,372.71,92.372,367.688l6.539-13.775H124.8l-.778,15.868Z" transform="translate(-34.927 -133.817)" fill="#902334" fill-rule="evenodd"/>
          <path id="Path_272" data-name="Path 272" d="M150.624,134.038s13.044,15.557,14.17,28.463,35.2,70.843,45.717,83.718,5.106,26.007,12.316,26.522,33.989-4.12,41.714-20.085,12.553-19.376,9.85-34.44-23.4-24.131-24.72-27.906,14.95-44.062,9.85-54.24-33.69-8.773-40.041-19.438-6.594-37.93-6.594-37.93S181.371,31.47,162.573,25.8s-19.312,73.386-19.312,73.386Z" transform="translate(-54.168 -9.647)" fill="#0e1120"/>
          <g id="Group_31" data-name="Group 31" transform="translate(137.117 273.821)" opacity="0.54" style="mix-blend-mode: multiply;isolation: isolate">
            <g id="Group_30" data-name="Group 30">
              <g id="Group_29" data-name="Group 29" clip-path="url(#clip-path-7)">
                <path id="Path_273" data-name="Path 273" d="M262.166,440.3s-8.252,32.322-22.085,44.154-19.6,1.611-19.6,1.611V475.091Z" transform="translate(-220.483 -440.303)" fill="#490f38" fill-rule="evenodd"/>
              </g>
            </g>
          </g>
          <path id="Path_274" data-name="Path 274" d="M190.608,166.448s-.194,23.175,3.475,30.513c0,0-17.573,27.23-23.56,27.037s0-20.47,0-20.47a25.59,25.59,0,0,0,2.317-6.759c.386-3.669-2.234-13.415-2.234-13.415Z" transform="translate(-63.47 -62.935)" fill="#e9645a"/>
          <path id="Path_275" data-name="Path 275" d="M307.789,317.059s-9.753,28.2-31,31.383c0,0,2.511-29.065,31-31.383" transform="translate(-104.658 -119.882)" fill="#662b36" fill-rule="evenodd"/>
          <path id="Path_276" data-name="Path 276" d="M101.306,125.868c2.324,3.772,4.628,6.869,11.273,7.542a45.48,45.48,0,0,0,11.192-.652c11.517-1.916,26.133-7.359,34-16.144a34.141,34.141,0,0,0,3.506-4.811c5.993-9.683,10.437-24.87,12.292-36.408.856-5.422,1.162-10.009.795-12.863a38.47,38.47,0,0,0-1.407-6.156,82.4,82.4,0,0,0-9.989-20.426,28.815,28.815,0,0,0-3.914-4.709c-15.961-14.555-26.46-13.128-35.531-11.4-9.091,1.733-20.181,13.72-22.688,20.956C98.31,48.039,98.7,63.409,96.68,73.337a33.477,33.477,0,0,1-1.672,5.626C92.582,85.2,89.075,89.216,88.077,96.9c-1.244,9.764,10.926,25.216,13.23,28.967" transform="translate(-33.269 -7.104)" fill="#f18767"/>
          <path id="Path_277" data-name="Path 277" d="M68.006,436.808s-2.907,7.914-.221,12.429c.557.936,15.408,20.069,29.086,21.887s20.519-15.9,20.519-15.9l-7.677,21.533-44.417,5.6-8.208-42.1,10.718-5.5Z" transform="translate(-21.585 -164.384)" fill="#af3b59" fill-rule="evenodd"/>
        </g>
      </g>
      <g id="Group_35" data-name="Group 35" transform="translate(41.042 277.053)">
        <g id="Group_34" data-name="Group 34" clip-path="url(#clip-path-8)">
          <rect id="Rectangle_186" data-name="Rectangle 186" width="18.144" height="82.474" transform="translate(-2.661 0.032) rotate(-1.157)" fill="url(#linear-gradient)"/>
        </g>
      </g>
      <g id="Group_48" data-name="Group 48">
        <g id="Group_47" data-name="Group 47" clip-path="url(#clip-path)">
          <g id="Group_38" data-name="Group 38" transform="translate(44.34 277.053)" opacity="0.2" style="mix-blend-mode: multiply;isolation: isolate">
            <g id="Group_37" data-name="Group 37">
              <g id="Group_36" data-name="Group 36" clip-path="url(#clip-path-10)">
                <path id="Path_279" data-name="Path 279" d="M75.312,445.5s-9.157,37.7.189,82.024c0,0-6.108-42.091-.189-82.024" transform="translate(-71.298 -445.5)" fill="#734660" fill-rule="evenodd"/>
              </g>
            </g>
          </g>
          <g id="Group_41" data-name="Group 41" transform="translate(48.354 277.053)" opacity="0.2" style="mix-blend-mode: multiply;isolation: isolate">
            <g id="Group_40" data-name="Group 40">
              <g id="Group_39" data-name="Group 39" clip-path="url(#clip-path-11)">
                <path id="Path_280" data-name="Path 280" d="M77.753,445.5s10.536,31.821.189,82.024c0,0,6.91-51.495-.189-82.024" transform="translate(-77.753 -445.5)" fill="#734660" fill-rule="evenodd"/>
              </g>
            </g>
          </g>
          <g id="Group_46" data-name="Group 46" transform="translate(41.042 305.648)" opacity="0.5" style="mix-blend-mode: multiply;isolation: isolate">
            <g id="Group_45" data-name="Group 45">
              <g id="Group_44" data-name="Group 44" clip-path="url(#clip-path-12)">
                <g id="Group_43" data-name="Group 43" transform="translate(0)">
                  <g id="Group_42" data-name="Group 42" clip-path="url(#clip-path-13)">
                    <rect id="Rectangle_189" data-name="Rectangle 189" width="17.566" height="53.884" transform="translate(-2.083 0.022) rotate(-1.157)" fill="url(#linear-gradient-2)"/>
                  </g>
                </g>
              </g>
            </g>
          </g>
        </g>
      </g>
      <g id="Group_50" data-name="Group 50" transform="translate(25.236 243.032)">
        <g id="Group_49" data-name="Group 49" clip-path="url(#clip-path-14)">
          <rect id="Rectangle_192" data-name="Rectangle 192" width="18.448" height="82.546" transform="matrix(1, -0.024, 0.024, 1, -2.918, 0.046)" fill="url(#linear-gradient-3)"/>
        </g>
      </g>
      <g id="Group_63" data-name="Group 63">
        <g id="Group_62" data-name="Group 62" clip-path="url(#clip-path)">
          <g id="Group_53" data-name="Group 53" transform="translate(28.522 243.033)" opacity="0.2" style="mix-blend-mode: multiply;isolation: isolate">
            <g id="Group_52" data-name="Group 52">
              <g id="Group_51" data-name="Group 51" clip-path="url(#clip-path-16)">
                <path id="Path_283" data-name="Path 283" d="M49.737,390.8s-9.026,37.734.477,82.023c0,0-6.256-42.07-.477-82.023" transform="translate(-45.863 -390.796)" fill="#734660" fill-rule="evenodd"/>
              </g>
            </g>
          </g>
          <g id="Group_56" data-name="Group 56" transform="translate(32.396 243.033)" opacity="0.2" style="mix-blend-mode: multiply;isolation: isolate">
            <g id="Group_55" data-name="Group 55">
              <g id="Group_54" data-name="Group 54" clip-path="url(#clip-path-17)">
                <path id="Path_284" data-name="Path 284" d="M52.092,390.8s10.647,31.784.477,82.023c0,0,6.729-51.518-.477-82.023" transform="translate(-52.092 -390.796)" fill="#734660" fill-rule="evenodd"/>
              </g>
            </g>
          </g>
          <g id="Group_61" data-name="Group 61" transform="translate(25.236 271.651)" opacity="0.5" style="mix-blend-mode: multiply;isolation: isolate">
            <g id="Group_60" data-name="Group 60">
              <g id="Group_59" data-name="Group 59" clip-path="url(#clip-path-18)">
                <g id="Group_58" data-name="Group 58" transform="translate(0 0)">
                  <g id="Group_57" data-name="Group 57" clip-path="url(#clip-path-19)">
                    <rect id="Rectangle_195" data-name="Rectangle 195" width="17.769" height="53.935" transform="matrix(1, -0.024, 0.024, 1, -2.24, 0.03)" fill="url(#linear-gradient-4)"/>
                  </g>
                </g>
              </g>
            </g>
          </g>
        </g>
      </g>
      <g id="Group_65" data-name="Group 65" transform="translate(42.346 278.943)">
        <g id="Group_64" data-name="Group 64" clip-path="url(#clip-path-20)">
          <rect id="Rectangle_198" data-name="Rectangle 198" width="105.831" height="93.729" transform="translate(-40.266 72.536) rotate(-65.544)" fill="url(#linear-gradient-5)"/>
        </g>
      </g>
      <g id="Group_67" data-name="Group 67" transform="translate(53.32 311.555)">
        <g id="Group_66" data-name="Group 66" clip-path="url(#clip-path-21)">
          <rect id="Rectangle_199" data-name="Rectangle 199" width="25.886" height="37.595" transform="translate(-4.587 10.086) rotate(-65.544)" fill="url(#linear-gradient-6)"/>
        </g>
      </g>
      <g id="Group_72" data-name="Group 72">
        <g id="Group_71" data-name="Group 71" clip-path="url(#clip-path)">
          <g id="Group_70" data-name="Group 70" transform="translate(53.359 311.555)" opacity="0.3">
            <g id="Group_69" data-name="Group 69">
              <g id="Group_68" data-name="Group 68" clip-path="url(#clip-path-23)">
                <path id="Path_288" data-name="Path 288" d="M121.527,506.4a9.159,9.159,0,0,1-1.968,1.369l0,0c-18.936-10.374-32.9-3.438-33.753-2.993.785-.538,14.164-9.215,35.726,1.626" transform="translate(-85.801 -500.979)" fill="#83072a" fill-rule="evenodd"/>
              </g>
            </g>
          </g>
        </g>
      </g>
      <g id="Group_74" data-name="Group 74" transform="translate(47.933 333.613)">
        <g id="Group_73" data-name="Group 73" clip-path="url(#clip-path-24)">
          <rect id="Rectangle_202" data-name="Rectangle 202" width="22.989" height="32.208" transform="matrix(0.414, -0.91, 0.91, 0.414, -4.354, 9.573)" fill="url(#linear-gradient-7)"/>
        </g>
      </g>
      <g id="Group_79" data-name="Group 79">
        <g id="Group_78" data-name="Group 78" clip-path="url(#clip-path)">
          <g id="Group_77" data-name="Group 77" transform="translate(47.967 333.613)" opacity="0.3">
            <g id="Group_76" data-name="Group 76">
              <g id="Group_75" data-name="Group 75" clip-path="url(#clip-path-26)">
                <path id="Path_290" data-name="Path 290" d="M107.226,540.329a9.917,9.917,0,0,1-1.761,1.463l0,0c-15.283-8.713-27.576-1.017-28.33-.527.7-.576,12.624-9.915,30.095-.935" transform="translate(-77.131 -536.448)" fill="#83072a" fill-rule="evenodd"/>
              </g>
            </g>
          </g>
        </g>
      </g>
      <g id="Group_81" data-name="Group 81" transform="translate(66.158 291.09)">
        <g id="Group_80" data-name="Group 80" clip-path="url(#clip-path-27)">
          <rect id="Rectangle_205" data-name="Rectangle 205" width="23.568" height="27.394" transform="matrix(0.564, -0.826, 0.826, 0.564, -5.131, 7.508)" fill="url(#linear-gradient-8)"/>
        </g>
      </g>
      <g id="Group_91" data-name="Group 91">
        <g id="Group_90" data-name="Group 90" clip-path="url(#clip-path)">
          <g id="Group_84" data-name="Group 84" transform="translate(66.192 291.09)" opacity="0.3">
            <g id="Group_83" data-name="Group 83">
              <g id="Group_82" data-name="Group 82" clip-path="url(#clip-path-29)">
                <path id="Path_292" data-name="Path 292" d="M132.054,472.932a11.126,11.126,0,0,1-1.831,1.245l0,0c-10.841-9.352-23.032-3.035-23.784-2.63.728-.489,12.994-8.383,25.618,1.387" transform="translate(-106.436 -468.071)" fill="#83072a" fill-rule="evenodd"/>
              </g>
            </g>
          </g>
          <g id="Group_89" data-name="Group 89" transform="translate(42.346 293.537)" opacity="0.5" style="mix-blend-mode: multiply;isolation: isolate">
            <g id="Group_88" data-name="Group 88">
              <g id="Group_87" data-name="Group 87" clip-path="url(#clip-path-30)">
                <g id="Group_86" data-name="Group 86" transform="translate(0 0)">
                  <g id="Group_85" data-name="Group 85" clip-path="url(#clip-path-31)">
                    <rect id="Rectangle_207" data-name="Rectangle 207" width="67.187" height="78.442" transform="translate(-14.397 0.681) rotate(-5.544)" fill="url(#linear-gradient-9)"/>
                  </g>
                </g>
              </g>
            </g>
          </g>
          <path id="Path_294" data-name="Path 294" d="M102.877,487.868s1.927,1.123,1.674,2.956c0,0-1.87-1.433-1.674-2.956" transform="translate(-38.893 -184.467)" fill="#fbb57e" fill-rule="evenodd"/>
          <path id="Path_295" data-name="Path 295" d="M120.571,525.527s1.927,1.123,1.674,2.956c0,0-1.87-1.433-1.674-2.956" transform="translate(-45.584 -198.706)" fill="#fbb57e" fill-rule="evenodd"/>
          <path id="Path_296" data-name="Path 296" d="M143.762,461.29s-.192,2.222-1.957,2.777c0,0,.5-2.3,1.957-2.777" transform="translate(-53.618 -174.417)" fill="#fbb57e" fill-rule="evenodd"/>
          <path id="Path_297" data-name="Path 297" d="M89.026,559.057s1.927,1.123,1.674,2.956c0,0-1.87-1.433-1.674-2.956" transform="translate(-33.656 -211.384)" fill="#fbb57e" fill-rule="evenodd"/>
          <path id="Path_298" data-name="Path 298" d="M137.461,490.138s-.455,2.37-2.417,2.77c0,0,.792-2.424,2.417-2.77" transform="translate(-51.061 -185.325)" fill="#fbb57e" fill-rule="evenodd"/>
          <path id="Path_299" data-name="Path 299" d="M115.873,522.709s-.455,2.37-2.417,2.77c0,0,.792-2.423,2.417-2.77" transform="translate(-42.899 -197.64)" fill="#fbb57e" fill-rule="evenodd"/>
          <path id="Path_300" data-name="Path 300" d="M115.367,494.8s-.455,2.37-2.417,2.77c0,0,.792-2.424,2.417-2.77" transform="translate(-42.707 -187.087)" fill="#fbb57e" fill-rule="evenodd"/>
          <path id="Path_301" data-name="Path 301" d="M86.5,534.432s-1.076-2.16.241-3.668c0,0,.84,2.407-.241,3.668" transform="translate(-32.548 -200.686)" fill="#fbb57e" fill-rule="evenodd"/>
          <path id="Path_302" data-name="Path 302" d="M127.666,457.64s2.065,1.249,1.759,3.228c0,0-2-1.583-1.759-3.228" transform="translate(-48.264 -173.037)" fill="#fbb57e" fill-rule="evenodd"/>
        </g>
      </g>
      <g id="Group_93" data-name="Group 93" transform="translate(7.171 234.114)">
        <g id="Group_92" data-name="Group 92" clip-path="url(#clip-path-32)">
          <rect id="Rectangle_210" data-name="Rectangle 210" width="68.546" height="138.482" transform="translate(-27.14 5.373) rotate(-11.613)" fill="url(#linear-gradient-10)"/>
        </g>
      </g>
      <g id="Group_95" data-name="Group 95" transform="translate(18.356 282.245)">
        <g id="Group_94" data-name="Group 94" clip-path="url(#clip-path-33)">
          <rect id="Rectangle_211" data-name="Rectangle 211" width="16.845" height="25.364" transform="translate(-4.683 0.946) rotate(-11.613)" fill="url(#linear-gradient-11)"/>
        </g>
      </g>
      <g id="Group_100" data-name="Group 100">
        <g id="Group_99" data-name="Group 99" clip-path="url(#clip-path)">
          <g id="Group_98" data-name="Group 98" transform="translate(18.357 282.245)" opacity="0.3">
            <g id="Group_97" data-name="Group 97">
              <g id="Group_96" data-name="Group 96" clip-path="url(#clip-path-35)">
                <path id="Path_305" data-name="Path 305" d="M41.722,453.849a29.78,29.78,0,0,1,.055,3.246h0c-11.213-.453-12.2,18.835-12.254,20.043-.018-1.284-.082-22.5,12.2-23.289" transform="translate(-29.518 -453.849)" fill="#83072a" fill-rule="evenodd"/>
              </g>
            </g>
          </g>
        </g>
      </g>
      <g id="Group_102" data-name="Group 102" transform="translate(28.11 317.712)">
        <g id="Group_101" data-name="Group 101" clip-path="url(#clip-path-36)">
          <rect id="Rectangle_214" data-name="Rectangle 214" width="14.666" height="24.38" transform="translate(-5.369 0.923) rotate(-11.613)" fill="url(#linear-gradient-12)"/>
        </g>
      </g>
      <g id="Group_107" data-name="Group 107">
        <g id="Group_106" data-name="Group 106" clip-path="url(#clip-path)">
          <g id="Group_105" data-name="Group 105" transform="translate(28.11 317.712)" opacity="0.3">
            <g id="Group_104" data-name="Group 104">
              <g id="Group_103" data-name="Group 103" clip-path="url(#clip-path-38)">
                <path id="Path_307" data-name="Path 307" d="M54.373,510.879s.144,1.277.169,3.225h0c-9.22-.824-9.3,18.3-9.3,19.494-.063-1.275-.922-22.343,9.129-22.718" transform="translate(-45.201 -510.879)" fill="#83072a" fill-rule="evenodd"/>
              </g>
            </g>
          </g>
        </g>
      </g>
      <g id="Group_109" data-name="Group 109" transform="translate(12.078 251.434)">
        <g id="Group_108" data-name="Group 108" clip-path="url(#clip-path-39)">
          <rect id="Rectangle_217" data-name="Rectangle 217" width="9.531" height="18.937" transform="translate(-0.591 0.016) rotate(-1.719)" fill="url(#linear-gradient-13)"/>
        </g>
      </g>
      <g id="Group_124" data-name="Group 124">
        <g id="Group_123" data-name="Group 123" clip-path="url(#clip-path)">
          <g id="Group_112" data-name="Group 112" transform="translate(12.078 251.434)" opacity="0.3">
            <g id="Group_111" data-name="Group 111">
              <g id="Group_110" data-name="Group 110" clip-path="url(#clip-path-41)">
                <path id="Path_309" data-name="Path 309" d="M28.283,404.885s.083,1.215.037,2.981h0c-8.123-4.852-8.857,12.341-8.895,13.422-.012-1.178-.039-20.544,8.859-16.4" transform="translate(-19.422 -404.305)" fill="#83072a" fill-rule="evenodd"/>
              </g>
            </g>
          </g>
          <g id="Group_117" data-name="Group 117" transform="translate(9.058 268.862)" opacity="0.5" style="mix-blend-mode: multiply;isolation: isolate">
            <g id="Group_116" data-name="Group 116">
              <g id="Group_115" data-name="Group 115" clip-path="url(#clip-path-42)">
                <g id="Group_114" data-name="Group 114" transform="translate(0 0)">
                  <g id="Group_113" data-name="Group 113" clip-path="url(#clip-path-43)">
                    <rect id="Rectangle_219" data-name="Rectangle 219" width="94.771" height="99.617" transform="translate(-48.582 43.153) rotate(-41.613)" fill="url(#linear-gradient-14)"/>
                  </g>
                </g>
              </g>
            </g>
          </g>
          <path id="Path_311" data-name="Path 311" d="M25.382,453.262s1.175.137,2.009,2.784a4.45,4.45,0,0,1-2.009-2.784" transform="translate(-9.597 -171.382)" fill="#fbb57e" fill-rule="evenodd"/>
          <path id="Path_312" data-name="Path 312" d="M49.812,491.314s1.175.137,2.008,2.783a4.45,4.45,0,0,1-2.008-2.783" transform="translate(-18.834 -185.77)" fill="#fbb57e" fill-rule="evenodd"/>
          <path id="Path_313" data-name="Path 313" d="M25.512,387.506a14.446,14.446,0,0,1,.761,5.131s-.991-3.452-.761-5.131" transform="translate(-9.633 -146.519)" fill="#fbb57e" fill-rule="evenodd"/>
          <path id="Path_314" data-name="Path 314" d="M56.484,558.921s1.175.137,2.008,2.783a4.448,4.448,0,0,1-2.008-2.783" transform="translate(-21.357 -211.333)" fill="#fbb57e" fill-rule="evenodd"/>
          <path id="Path_315" data-name="Path 315" d="M37.96,430.614s1.037,3.514.611,5.45c0,0-.956-3.825-.611-5.45" transform="translate(-14.325 -162.819)" fill="#fbb57e" fill-rule="evenodd"/>
          <path id="Path_316" data-name="Path 316" d="M47.328,489.831s1.037,3.514.611,5.45c0,0-.956-3.825-.611-5.45" transform="translate(-17.867 -185.209)" fill="#fbb57e" fill-rule="evenodd"/>
          <path id="Path_317" data-name="Path 317" d="M33.242,452.64s1.037,3.514.611,5.45c0,0-.956-3.825-.611-5.45" transform="translate(-12.541 -171.147)" fill="#fbb57e" fill-rule="evenodd"/>
          <path id="Path_318" data-name="Path 318" d="M43.515,527.316a12.68,12.68,0,0,1-1.753-5.107,16.317,16.317,0,0,1,1.753,5.107" transform="translate(-15.791 -197.451)" fill="#fbb57e" fill-rule="evenodd"/>
          <path id="Path_319" data-name="Path 319" d="M18.2,394.913s1.282.208,2.171,3.088a5.068,5.068,0,0,1-2.171-3.088" transform="translate(-6.883 -149.32)" fill="#fbb57e" fill-rule="evenodd"/>
          <g id="Group_122" data-name="Group 122" transform="translate(61.738 11.685)" opacity="0.58" style="mix-blend-mode: multiply;isolation: isolate">
            <g id="Group_121" data-name="Group 121">
              <g id="Group_120" data-name="Group 120" clip-path="url(#clip-path-44)">
                <g id="Group_119" data-name="Group 119" transform="translate(0 0)">
                  <g id="Group_118" data-name="Group 118" clip-path="url(#clip-path-45)">
                    <rect id="Rectangle_221" data-name="Rectangle 221" width="79.726" height="116.092" transform="translate(0 -2.103)" fill="url(#linear-gradient-15)"/>
                  </g>
                </g>
              </g>
            </g>
          </g>
        </g>
      </g>
      <g id="Group_126" data-name="Group 126" transform="translate(51.782 291.795)">
        <g id="Group_125" data-name="Group 125" clip-path="url(#clip-path-46)">
          <rect id="Rectangle_224" data-name="Rectangle 224" width="25.457" height="25.456" transform="translate(0 0)" fill="url(#linear-gradient-16)"/>
        </g>
      </g>
      <g id="Group_214" data-name="Group 214">
        <g id="Group_213" data-name="Group 213" clip-path="url(#clip-path)">
          <path id="Path_322" data-name="Path 322" d="M97.436,470.743s2.957.887,8.576,0c0,0-4.643-2.6-8.576,0" transform="translate(-36.841 -177.554)" fill="#48631e" fill-rule="evenodd"/>
          <path id="Path_323" data-name="Path 323" d="M105.007,462.688s-1.085,1.278-1.274,5.031h.742a15.8,15.8,0,0,1,2.4-4.41s-1.021-1.02-1.863-.621" transform="translate(-39.222 -174.911)" fill="#48631e" fill-rule="evenodd"/>
          <g id="Group_131" data-name="Group 131" transform="translate(51.782 303.569)" opacity="0.5" style="mix-blend-mode: multiply;isolation: isolate">
            <g id="Group_130" data-name="Group 130">
              <g id="Group_129" data-name="Group 129" clip-path="url(#clip-path-48)">
                <g id="Group_128" data-name="Group 128" transform="translate(0 0)">
                  <g id="Group_127" data-name="Group 127" clip-path="url(#clip-path-49)">
                    <rect id="Rectangle_225" data-name="Rectangle 225" width="26.615" height="13.683" transform="translate(-0.325 0)" fill="url(#linear-gradient-17)"/>
                  </g>
                </g>
              </g>
            </g>
          </g>
          <g id="Group_134" data-name="Group 134" transform="translate(70.794 296.19)" opacity="0.5">
            <g id="Group_133" data-name="Group 133">
              <g id="Group_132" data-name="Group 132" clip-path="url(#clip-path-50)">
                <path id="Path_325" data-name="Path 325" d="M115.681,477.2c.32.692.207,1.424-.252,1.637s-1.091-.176-1.411-.868-.206-1.424.252-1.637,1.091.176,1.411.868" transform="translate(-113.836 -476.272)" fill="#ffc870" fill-rule="evenodd"/>
              </g>
            </g>
          </g>
          <path id="Path_326" data-name="Path 326" d="M210.285,129.733s7.81-7.787,15.9-7.679c0,0,5.744,2.64,6.677,7.331,1.386,6.98-4.951,17.792-12.5,22-7.617,4.244-16.878-.114-17.452-3.6s7.371-18.049,7.371-18.049" transform="translate(-76.712 -46.149)" fill="#f18767"/>
          <g id="Group_139" data-name="Group 139" transform="translate(131.293 80.983)" opacity="0.58" style="mix-blend-mode: multiply;isolation: isolate">
            <g id="Group_138" data-name="Group 138">
              <g id="Group_137" data-name="Group 137" clip-path="url(#clip-path-51)">
                <g id="Group_136" data-name="Group 136" transform="translate(0 0)">
                  <g id="Group_135" data-name="Group 135" clip-path="url(#clip-path-52)">
                    <rect id="Rectangle_228" data-name="Rectangle 228" width="31.41" height="31.656" transform="matrix(0.338, -0.941, 0.941, 0.338, -7.774, 19.818)" fill="url(#linear-gradient-18)"/>
                  </g>
                </g>
              </g>
            </g>
          </g>
          <g id="Group_144" data-name="Group 144" transform="translate(132.689 84.839)" opacity="0.58" style="mix-blend-mode: multiply;isolation: isolate">
            <g id="Group_143" data-name="Group 143">
              <g id="Group_142" data-name="Group 142" clip-path="url(#clip-path-53)">
                <g id="Group_141" data-name="Group 141" transform="translate(0 0)">
                  <g id="Group_140" data-name="Group 140" clip-path="url(#clip-path-54)">
                    <rect id="Rectangle_230" data-name="Rectangle 230" width="17.485" height="15.833" transform="translate(-4.577 12.752) rotate(-70.257)" fill="url(#linear-gradient-19)"/>
                  </g>
                </g>
              </g>
            </g>
          </g>
          <path id="Path_329" data-name="Path 329" d="M76.428,56.305s3.71,6.34,6.36,8.134c2.629,1.794,9.52,1.794,9.52,1.794s2.629-14.739,2.447-24.381c0,0,1.488-3.873,2.568-4.383,0,0,12.945-1.427,19.713-7.155,6.748-5.728,12.027-14.29,12.027-14.29a92.011,92.011,0,0,1,22.912,13.128s7.542,5.667,9.622,26.541a153.293,153.293,0,0,1,0,29.151s7.012-7.339,11.9-8.134c0,0,13.822,15.941,15.371,22.138,1.549,6.218-5.463,22.24-5.83,23.585-.184.714,2.078,2.243,5.422,3.507a28.619,28.619,0,0,0,11.151,1.977c8.114-.387,31.8-2.833,34.247,4.362,1.814,5.382-6.156,28.845-9.846,41.361-1.264,4.281-2.039,7.277-1.733,7.828,1.162,2.181,9.031,6.564,11.843,10.56.081.122.183.285.286.469,3.1,5.259,11.253,30.638,13.617,33,2.446,2.446,10.559-5.4,12.863-4.118,2.324,1.284,0,21.628,0,21.628s10.947-12.231,6.585-26.786c0,0-11.538,5.544-13.984,5.728a2.491,2.491,0,0,1-2.772-2.12s7.481-28.845,5.361-32.7a2.193,2.193,0,0,0-.713-.734c-4.4-2.915-23.81-1.55-27.683-3.812-2.833-1.631-3.282-5.28-2.609-8.868a19.413,19.413,0,0,1,1.55-4.831c2.12-4.546,14.84-39.119,9.8-47.4-3.322-5.483-20.038-9.846-31.7-14.677-5.912-2.466-10.519-5.055-11.415-7.97-1.448-4.647.326-12.435,1.509-21.241,1-7.644,1.549-16.063-.877-23.85-3.527-11.294-16.165-16.1-29.436-24.666a92.7,92.7,0,0,1-11.089-8.235c-1.019-.9-2.08-1.916-3.2-3C143.046,10.949,133.71,1.245,119.93,0A63.208,63.208,0,0,1,94.917,20.856s-9.846,7.726-11.293,16.613c0,0,5.4,14.677,3.71,19.019s-5.749,3.629-6.951,3.282-3.955-3.466-3.955-3.466" transform="translate(-28.898 -0.001)" fill="#13162c"/>
          <path id="Path_330" data-name="Path 330" d="M162.1,442.438a36.776,36.776,0,0,1-6.276-1.159c-3.573-.966-10.622-1.159-14.388-1.352s-20.374-5.891-20.374-5.891,11.78-11.78,17.284-13.614,11.2,4.538,11.2,4.538Z" transform="translate(-45.773 -158.84)" fill="#711434"/>
          <path id="Path_331" data-name="Path 331" d="M114.158,298.656s-.876,7.767,1.06,12.007c1.916,4.261,16.022,10.519,18.04,12.17,2.039,1.651,25.175,30.536,26.725,38.263a16.775,16.775,0,0,1,.264,2.405c.306,8.3-4.138,21.812-4.138,21.812s13.393,7.339,32.7-3.1c8.012-4.321,14.963-11.8,20.345-19.08h.021a126.177,126.177,0,0,0,12.088-20.059s-15.187.775-19.04-7.216c-3.873-7.971-2-39.71-2-39.71,4.3,2.956,8.949,11.619,8.949,11.619,9.173-18.448,30.985-31.373,30.985-31.373-6.218-4.26-23.116-34.185-30.6-40.566-7.828-6.665-15.717-8.174-22.1-11.069-6.36-2.895-16.41-8.378-16.981-9.785a13.86,13.86,0,0,1-.754-3.486l-3.364-2c-1.488,11.6-12.537,23.932-18.713,22.567-5.973-1.3-2.874-13.434-2.671-14.249-24.176,25.3-29.089,35.409-34.205,49.107a158.136,158.136,0,0,1-12.843,25.889c2.69,1.733,16.226,5.85,16.226,5.85" transform="translate(-37.029 -79.211)" fill="#edd1a9" fill-rule="evenodd"/>
          <path id="Path_332" data-name="Path 332" d="M249.436,430.516s-20.226,51.574-69.852,39.949l4.405-5.013s45.877,8.493,62.871-35.945Z" transform="translate(-67.902 -162.4)" fill="#f8dfd8"/>
          <path id="Path_333" data-name="Path 333" d="M49.577,423.651,27.552,439.889l-19.312,5.15s.5,26.336,1.095,52.915C9.859,521.45,0,617.689,0,617.689l122.567,4.12S126.784,493.834,132.014,448l-29.692-7.983L88.561,424.56l.532,8.05,2.253,1.678s.257,15.386-.419,18.475-13.813,16.425-26.94,16.027c-17.789-.539-22.208-24.62-22.884-28.1s8.475-8.084,8.475-8.084-.167-6.939,0-8.959" transform="translate(0 -160.186)" fill="#f7edeb"/>
          <path id="Path_334" data-name="Path 334" d="M110.988,431.44a5.562,5.562,0,0,0,.326.591h3.221l1.08.9a27.417,27.417,0,0,0,7.155,0,44.827,44.827,0,0,0,7.2-.509l2.834-1.611-2.243-1.672s-.9-9.907,0-14.677l-.306.081c-.183.041-.468.1-.795.2-2.039.53-6.279,1.794-7.583,3.221,0,0-4.974-.611-7.93.877,0,0-2.833.265-3.608,1,0,0-1.9,6.625.652,11.6" transform="translate(-41.462 -156.71)" fill="#f18767"/>
          <path id="Path_335" data-name="Path 335" d="M79.558,431.406a22.324,22.324,0,0,0,.475,2.65h4.989l.228.693,7.642-.55.456-1.55,4.9-.387s.017-.2.07-.591l.017-.163c.211-2.039.685-7.787-.088-11.966h-4.9s-1.563-1.121-6.324-.612a29.984,29.984,0,0,0-6.992-.123,43.866,43.866,0,0,0-.475,12.6" transform="translate(-29.98 -158.286)" fill="#f18767"/>
          <path id="Path_336" data-name="Path 336" d="M75.791,416.387s-3.161-4.018-7.394-4.142l-.709,4.142s6.065,2.164,7.486,3.861Z" transform="translate(-25.593 -155.873)" fill="#e9645a"/>
          <path id="Path_337" data-name="Path 337" d="M70.06,413.239s-.34,6.313-1.563,9.186l-3.219.555a20.777,20.777,0,0,1-1.394-10.345s4.051-1.2,6.175.6" transform="translate(-24.115 -155.873)" fill="#f18767"/>
          <path id="Path_338" data-name="Path 338" d="M206.535,462.805h4.715l2.06,169.174-16.222,4.634s4.52-133.3,9.447-173.808" transform="translate(-74.521 -174.99)" fill="#b5b4b4" fill-rule="evenodd"/>
          <path id="Path_339" data-name="Path 339" d="M181.63,76.33s-12.621-11.1-24.126-12.359c0,0-.5,4.152.662,6.18,0,0,10.428-.58,23.464,6.18" transform="translate(-59.513 -24.188)" fill="#0e1120"/>
          <path id="Path_340" data-name="Path 340" d="M106.919,57.406a43.183,43.183,0,0,1,8.594,16.415,19.964,19.964,0,0,0-9.72-9.335s-.8-5.343,1.126-7.081" transform="translate(-39.938 -21.706)" fill="#0e1120"/>
          <path id="Path_341" data-name="Path 341" d="M158.788,91.45a12.051,12.051,0,0,1,7.5-2.025c4.442.289,12.585,10.233,12.1,19.309,0,0,.579-15.739-19.6-17.284" transform="translate(-60.039 -33.803)" fill="#cb333e"/>
          <path id="Path_342" data-name="Path 342" d="M105.166,85.834a10.443,10.443,0,0,1,4.073-.154c1.787.412,6.851,11.1,5.027,20.3Z" transform="translate(-39.764 -32.339)" fill="#cb333e"/>
          <path id="Path_343" data-name="Path 343" d="M113.679,106.075c-.052,2.076-3.966,3.734-5.7,3.219s-3.619-3.637-4.164-7.806.116-15.007.764-15.562c1.579-1.351,9.448,6.244,9.1,20.149" transform="translate(-39.177 -32.431)" fill="#d8d0e9"/>
          <path id="Path_344" data-name="Path 344" d="M154.353,111.261c.774,1.346,4.057,4.036,8.236,4.036a19.129,19.129,0,0,0,6.359-1.162,20.852,20.852,0,0,0,5.687-3.037.064.064,0,0,0,.042-.021,8.442,8.442,0,0,0,1.875-1.835,3.741,3.741,0,0,0-.021-2.181v-.021a30.533,30.533,0,0,0-3.262-8.419,9.836,9.836,0,0,0-.673-1.04c-3.445-4.954-10.886-8.358-14.881-6.177-4.239,2.3-4.137,18.51-3.363,19.855" transform="translate(-58.204 -34.307)" fill="#d8d0e9"/>
          <path id="Path_345" data-name="Path 345" d="M113.543,103.869a26.993,26.993,0,0,0-5.123-16.335s-4.81-5.621-4.909,6.114c0,0-.823-6.9.432-10.812,1.439-.117,10.187,6.357,9.6,21.034" transform="translate(-39.038 -31.32)" fill="#561824"/>
          <path id="Path_346" data-name="Path 346" d="M176.493,106.366s-2.34-13.936-14.265-15c-8.647-.771-8.166,11.153-8.166,11.153s-.782-9.98,2.144-12.281c3.4-2.671,17.927,1,20.287,16.126" transform="translate(-58.216 -33.818)" fill="#561824"/>
          <path id="Path_347" data-name="Path 347" d="M163.882,108.657c0,4.913,3.71,8.909,8.277,8.909a4.943,4.943,0,0,0,.55-.021,20.878,20.878,0,0,0,5.687-3.037.064.064,0,0,0,.041-.021,9.343,9.343,0,0,0,1.854-4.016v-.021a30.536,30.536,0,0,0-3.262-8.419,9.955,9.955,0,0,0-.672-1.04,7.639,7.639,0,0,0-4.2-1.244c-4.567,0-8.277,4-8.277,8.909" transform="translate(-61.965 -37.715)" fill="#13162c"/>
          <path id="Path_348" data-name="Path 348" d="M113.609,97.268s-7.527,4.659-.41,16.05a3.313,3.313,0,0,0,2.947-2.9c.343-2.68-.526-9.664-2.537-13.154" transform="translate(-41.645 -36.778)" fill="#13162c"/>
          <path id="Path_349" data-name="Path 349" d="M163.136,107.464a1.2,1.2,0,1,0,1.2-1.2,1.2,1.2,0,0,0-1.2,1.2" transform="translate(-61.683 -40.18)" fill="#fff"/>
          <g id="Group_149" data-name="Group 149" transform="translate(65.402 83.562)" opacity="0.58" style="mix-blend-mode: multiply;isolation: isolate">
            <g id="Group_148" data-name="Group 148">
              <g id="Group_147" data-name="Group 147" clip-path="url(#clip-path-55)">
                <g id="Group_146" data-name="Group 146" transform="translate(0 0)">
                  <g id="Group_145" data-name="Group 145" clip-path="url(#clip-path-56)">
                    <rect id="Rectangle_232" data-name="Rectangle 232" width="21.69" height="9.474" transform="translate(0 0)" fill="url(#linear-gradient-20)"/>
                  </g>
                </g>
              </g>
            </g>
          </g>
          <path id="Path_351" data-name="Path 351" d="M108.946,102.321a1.2,1.2,0,1,0,1.2-1.2,1.2,1.2,0,0,0-1.2,1.2" transform="translate(-41.193 -38.236)" fill="#fff"/>
          <path id="Path_352" data-name="Path 352" d="M131.854,140.376a3.646,3.646,0,0,0-4.12,1.738s2.7-6.888,4.12-1.738" transform="translate(-48.297 -52.355)" fill="#75202b" fill-rule="evenodd"/>
          <path id="Path_353" data-name="Path 353" d="M136.871,133.017s3.2,2.756.112,5.512c0,0,1.723-1.769-.112-5.512" transform="translate(-51.752 -50.295)" fill="#9d2e2a" fill-rule="evenodd"/>
          <path id="Path_354" data-name="Path 354" d="M133.358,161.161s-2.934,7.8-8.856,10.761-9.72,1.223-10.106.644-.4-8.562-.4-8.562,10,2.556,19.364-2.842" transform="translate(-43.102 -60.936)" fill="#c23533" fill-rule="evenodd"/>
          <path id="Path_355" data-name="Path 355" d="M130.823,160.423s-3.578.956-10.916,0-12.617-1.213-12.617-1.213l1.416,2.391s3.678,2.84,6.92,2.775,15.2-3.953,15.2-3.953" transform="translate(-40.567 -60.199)" fill="#9f2334" fill-rule="evenodd"/>
          <path id="Path_356" data-name="Path 356" d="M132.613,159.21l-.451,1.03s-10.221,4.056-17.052,3.734a12.46,12.46,0,0,1-5.543-2.373,14.9,14.9,0,0,0,6.116,3.338s5.729-.45,16.48-3.926l1.417.322Z" transform="translate(-41.428 -60.199)" fill="#75202b" fill-rule="evenodd"/>
          <path id="Path_357" data-name="Path 357" d="M192.465,177.137s-7.707,15.2-18.4,15.868l-1.79-8.114a38.994,38.994,0,0,0,20.012-14.375Z" transform="translate(-65.139 -64.473)" fill="#711434" fill-rule="evenodd"/>
          <g id="Group_152" data-name="Group 152" transform="translate(129.361 39.783)" opacity="0.5" style="mix-blend-mode: soft-light;isolation: isolate">
            <g id="Group_151" data-name="Group 151">
              <g id="Group_150" data-name="Group 150" clip-path="url(#clip-path-57)">
                <path id="Path_358" data-name="Path 358" d="M209.265,68.025s19.763,26.268,27.488,37.146,2.961,29.675,5.794,37.4,38.624-3.669,43.646,3.122c0,0-.74-2.157-7.693-5.536s-30.513.419-33.7-1.352-1.835-32.129-5.215-42.069-31.573-32.766-31.573-32.766Z" transform="translate(-208.012 -63.971)" fill="#fff" fill-rule="evenodd"/>
              </g>
            </g>
          </g>
          <g id="Group_155" data-name="Group 155" transform="translate(126.302 32.835)" opacity="0.5" style="mix-blend-mode: soft-light;isolation: isolate">
            <g id="Group_154" data-name="Group 154">
              <g id="Group_153" data-name="Group 153" clip-path="url(#clip-path-58)">
                <path id="Path_359" data-name="Path 359" d="M204.455,55.664s31.106,13.882,35.009,19.9,3.816,16.952,3.816,16.952,1.2-11.329-4.685-20.406-35.5-19.308-35.5-19.308Z" transform="translate(-203.093 -52.799)" fill="#fff" fill-rule="evenodd"/>
              </g>
            </g>
          </g>
          <g id="Group_158" data-name="Group 158" transform="translate(54.724)" opacity="0.5" style="mix-blend-mode: soft-light;isolation: isolate">
            <g id="Group_157" data-name="Group 157">
              <g id="Group_156" data-name="Group 156" clip-path="url(#clip-path-59)">
                <path id="Path_360" data-name="Path 360" d="M146.857,10.66S134.374,1.542,127.868,2.7s-8.4,22.6-17.284,28.679S88,37.465,88,37.465l.331-1.51s15.982.544,24-8.243S124.3,0,124.3,0s11.616.465,22.561,10.66" transform="translate(-87.995 0)" fill="#fff" fill-rule="evenodd"/>
              </g>
            </g>
          </g>
          <g id="Group_161" data-name="Group 161" transform="translate(55.054 9.838)" opacity="0.5" style="mix-blend-mode: soft-light;isolation: isolate">
            <g id="Group_160" data-name="Group 160">
              <g id="Group_159" data-name="Group 159" clip-path="url(#clip-path-60)">
                <path id="Path_361" data-name="Path 361" d="M115.887,15.82s-1.585,10.053-7.881,16.04S88.527,41.938,88.527,41.938l.595-1.195s13.315-5.11,18.123-9.656,6.095-13.016,6.095-13.016Z" transform="translate(-88.527 -15.82)" fill="#fff" fill-rule="evenodd"/>
              </g>
            </g>
          </g>
          <g id="Group_164" data-name="Group 164" transform="translate(193.318 173.64)" opacity="0.4" style="mix-blend-mode: multiply;isolation: isolate">
            <g id="Group_163" data-name="Group 163">
              <g id="Group_162" data-name="Group 162" clip-path="url(#clip-path-61)">
                <path id="Path_362" data-name="Path 362" d="M310.922,287.041c1.162,2.181,9.031,6.564,11.843,10.56.081.122.183.285.285.469,5.993-1.754,15.146-4.4,20.956-6.1-4.4-2.915-23.81-1.55-27.683-3.812-2.833-1.631-3.282-5.28-2.609-8.868l-1.06-.081c-1.264,4.281-2.039,7.277-1.733,7.828" transform="translate(-310.855 -279.213)" fill="#4a1750" fill-rule="evenodd"/>
              </g>
            </g>
          </g>
          <path id="Path_363" data-name="Path 363" d="M76.428,57.9s3.71,6.34,6.36,8.134c2.629,1.794,9.52,1.794,9.52,1.794s2.629-14.739,2.447-24.381c0,0,1.488-3.873,2.568-4.383,0,0,12.945-1.427,19.713-7.155,6.748-5.728,12.027-14.29,12.027-14.29a92.011,92.011,0,0,1,22.912,13.128s7.542,5.667,9.622,26.541a153.293,153.293,0,0,1,0,29.151s7.012-7.339,11.9-8.134c0,0,13.822,15.941,15.371,22.138,1.549,6.218-5.463,22.24-5.83,23.585-.184.714,2.078,2.243,5.422,3.507a10.793,10.793,0,0,1,.591-3.4c2.426-7.441,10.621-12.945,15.676-15.718-5.912-2.466-10.519-5.055-11.415-7.97-1.448-4.647.326-12.435,1.509-21.241a61.224,61.224,0,0,1-5.769,10.7,167.647,167.647,0,0,1-16.593-17.368c-8.48-10.253-14.555-38.181-14.208-40.1.245-1.243,3.792-1.631,6.258-1.753a92.7,92.7,0,0,1-11.089-8.235c-1.019-.9-2.08-1.916-3.2-3l-3-2S132.67,3.469,125.678,4.244c-6.971.795-5.748,16.083-14.371,25.094-8.6,9.01-27.682,9.723-27.682,9.723s5.4,14.677,3.71,19.019-5.749,3.629-6.951,3.282S76.428,57.9,76.428,57.9" transform="translate(-28.898 -1.593)" fill="#13162c" fill-rule="evenodd"/>
          <g id="Group_167" data-name="Group 167" transform="translate(148.109 62.888)" opacity="0.5" style="mix-blend-mode: soft-light;isolation: isolate">
            <g id="Group_166" data-name="Group 166">
              <g id="Group_165" data-name="Group 165" clip-path="url(#clip-path-62)">
                <path id="Path_364" data-name="Path 364" d="M250.273,109.176l-5.96-8.053-6.155,4.4,8.235,11.244Z" transform="translate(-238.158 -101.124)" fill="#fff"/>
              </g>
            </g>
          </g>
          <g id="Group_170" data-name="Group 170" transform="translate(156.343 52.692)" opacity="0.5" style="mix-blend-mode: soft-light;isolation: isolate">
            <g id="Group_169" data-name="Group 169">
              <g id="Group_168" data-name="Group 168" clip-path="url(#clip-path-63)">
                <path id="Path_365" data-name="Path 365" d="M257.729,87.633l-1.223,8.489L251.4,91.2l3.164-6.467Z" transform="translate(-251.399 -84.729)" fill="#fff"/>
              </g>
            </g>
          </g>
          <path id="Path_366" data-name="Path 366" d="M111.8,431.44a5.559,5.559,0,0,0,.326.591h3.221l1.08.9a27.417,27.417,0,0,0,7.155,0,44.827,44.827,0,0,0,7.2-.509l2.834-1.611-2.243-1.672s-.9-9.907,0-14.677l-.306.081-.795.2-.408.123-1.97,14.636-4.064.755s-2.08-7.461-1.142-12.292a27.1,27.1,0,0,0-.244,13.067l-5.79,1.141-1.447-.754s-1.447-3.526-.448-12.577c0,0-1.406,4.851-.346,12.72Z" transform="translate(-42.271 -156.71)" fill="#c6363b"/>
          <g id="Group_173" data-name="Group 173" transform="translate(72.743 24.312)" opacity="0.5" style="mix-blend-mode: soft-light;isolation: isolate">
            <g id="Group_172" data-name="Group 172">
              <g id="Group_171" data-name="Group 171" clip-path="url(#clip-path-64)">
                <path id="Path_367" data-name="Path 367" d="M128.861,39.778s-4.582,6.333-11.1,8.46L116.97,47.1s5.989-2.784,8.918-8Z" transform="translate(-116.97 -39.094)" fill="#fff"/>
              </g>
            </g>
          </g>
          <path id="Path_368" data-name="Path 368" d="M169.364,176.091s-19.04,17.707-50.722,15.286c0,0,2.822,2.465,12.672,1.631s27.52-6.01,38.05-16.917" transform="translate(-44.859 -66.581)" fill="#c6363b" fill-rule="evenodd"/>
          <path id="Path_369" data-name="Path 369" d="M195.564,211.5s-14.454,28.261-23.981,28.776-3.289-19.81-3.289-19.81l3.145-4.235s-3.126,11.825,1.513,12.42c6.364.817,19.255-19.162,19.255-19.162Z" transform="translate(-62.875 -79.208)" fill="#f2cac1"/>
          <path id="Path_370" data-name="Path 370" d="M112.661,353.562l-18.154-5.053,2.124-5.053,16.279,4.136Z" transform="translate(-35.734 -129.863)" fill="#f8dfd8"/>
          <g id="Group_176" data-name="Group 176" transform="translate(78.189 187.135)" opacity="0.4" style="mix-blend-mode: multiply;isolation: isolate">
            <g id="Group_175" data-name="Group 175">
              <g id="Group_174" data-name="Group 174" clip-path="url(#clip-path-65)">
                <path id="Path_371" data-name="Path 371" d="M125.728,345.229c1.916,4.261,16.022,10.519,18.04,12.17,2.039,1.651,25.175,30.537,26.725,38.263a16.685,16.685,0,0,1,.264,2.405c8.888,1.345,29.579,3.629,48.9-.367h.021a126.186,126.186,0,0,0,12.088-20.059s-15.187.774-19.04-7.216c-3.873-7.97-2-39.71-2-39.71,4.3,2.956,8.949,11.619,8.949,11.619l-7.542-41.422-1.162,22.1-4.057,1.3S195.45,339.054,176.9,342.336l-40.266,0Z" transform="translate(-125.728 -300.913)" fill="#5e1765" fill-rule="evenodd"/>
              </g>
            </g>
          </g>
          <g id="Group_179" data-name="Group 179" transform="translate(67.753 187.134)" opacity="0.4" style="mix-blend-mode: multiply;isolation: isolate">
            <g id="Group_178" data-name="Group 178">
              <g id="Group_177" data-name="Group 177" clip-path="url(#clip-path-66)">
                <path id="Path_372" data-name="Path 372" d="M118.12,337.476l.25-5.97,8.44-30.594-17.864,34.011Z" transform="translate(-108.946 -300.911)" fill="#3a1c5e" fill-rule="evenodd"/>
              </g>
            </g>
          </g>
          <path id="Path_373" data-name="Path 373" d="M252.783,319.525c5.214,8.3,12.863,18.294,17.369,28.336s6.395,21.871,5.665,23.818c-1.545,4.119-19.483,16.634-41.715,23.3-23.174,6.952-49.439,6.18-54.46,7.339s-7.113,2.285-11.266,2.092-10.911-6.953-11.491-8.014-2.317-7.049-2.317-7.049-3.38-4.635-6.759-5.891a34.661,34.661,0,0,1-5.021,4.152c-2.221,1.352-5.118-1.545-5.118-1.545s3.476-10.268,7.854-12.006A8.5,8.5,0,0,1,149,376.25c1.481,1.609,15.932,15.3,26.264,15.45,4.506.064,16.383-3.412,34.44-12.682s20.729-17.8,29.934-23.754a65.178,65.178,0,0,0-6.373-18.636,91.426,91.426,0,0,1,9.27-10.477c6.035-5.456,10.247-6.626,10.247-6.626" transform="translate(-52.055 -120.815)" fill="#f18767"/>
          <path id="Path_374" data-name="Path 374" d="M312.45,321.929s-14.087,7.116-18.927,19.163l-2.136-4.465s4.851-10.258,19.517-17.1Z" transform="translate(-110.176 -120.815)" fill="#c6363b" fill-rule="evenodd"/>
          <g id="Group_182" data-name="Group 182" transform="translate(101.673 163.767)" opacity="0.4" style="mix-blend-mode: multiply;isolation: isolate">
            <g id="Group_181" data-name="Group 181">
              <g id="Group_180" data-name="Group 180" clip-path="url(#clip-path-67)">
                <path id="Path_375" data-name="Path 375" d="M211.357,263.336s-13.711,13.454-18.926,17.574-28.941,19.055-28.941,19.055,20.64-8.144,30.343-11.62,17.524-25.009,17.524-25.009" transform="translate(-163.49 -263.336)" fill="#5e1765" fill-rule="evenodd"/>
              </g>
            </g>
          </g>
          <g id="Group_185" data-name="Group 185" transform="translate(178.959 174.903)" opacity="0.4" style="mix-blend-mode: multiply;isolation: isolate">
            <g id="Group_184" data-name="Group 184">
              <g id="Group_183" data-name="Group 183" clip-path="url(#clip-path-68)">
                <path id="Path_376" data-name="Path 376" d="M311.937,303.517l-15.5-6.824-8.675-15.449Z" transform="translate(-287.765 -281.244)" fill="#5e1765" fill-rule="evenodd"/>
              </g>
            </g>
          </g>
          <g id="Group_188" data-name="Group 188" transform="translate(143.568 328.329)" opacity="0.4" style="mix-blend-mode: multiply;isolation: isolate">
            <g id="Group_187" data-name="Group 187">
              <g id="Group_186" data-name="Group 186" clip-path="url(#clip-path-69)">
                <path id="Path_377" data-name="Path 377" d="M258.474,568.215l-27.618-40.264,28.18,14.716Z" transform="translate(-230.856 -527.951)" fill="#490f38" fill-rule="evenodd"/>
              </g>
            </g>
          </g>
          <path id="Path_378" data-name="Path 378" d="M319.995,378.152a37.655,37.655,0,0,0-18.539-2.2l-.3-1.588s10.339-1.214,18.836,3.792" transform="translate(-113.87 -141.499)" fill="#c6363b" fill-rule="evenodd"/>
          <g id="Group_191" data-name="Group 191" transform="translate(150.233 210.537)" opacity="0.4" style="mix-blend-mode: multiply;isolation: isolate">
            <g id="Group_190" data-name="Group 190">
              <g id="Group_189" data-name="Group 189" clip-path="url(#clip-path-70)">
                <path id="Path_379" data-name="Path 379" d="M254.536,344.945l-3.813-6.4-9.149,8.907,12.53,17.208s-.591-14.244.432-19.715" transform="translate(-241.574 -338.543)" fill="#5e1765" fill-rule="evenodd"/>
              </g>
            </g>
          </g>
          <g id="Group_194" data-name="Group 194" transform="translate(89.095 228.558)" opacity="0.4" style="mix-blend-mode: multiply;isolation: isolate">
            <g id="Group_193" data-name="Group 193">
              <g id="Group_192" data-name="Group 192" clip-path="url(#clip-path-71)">
                <path id="Path_380" data-name="Path 380" d="M200.778,375.615s-19.277-5.969-24.041-7.032-33.472-1.063-33.472-1.063l32.442,6.134Z" transform="translate(-143.265 -367.52)" fill="#5e1765" fill-rule="evenodd"/>
              </g>
            </g>
          </g>
          <path id="Path_381" data-name="Path 381" d="M79.72,431.59a22.327,22.327,0,0,0,.475,2.65h4.989l.228.693,7.642-.55.456-1.55,4.9-.387s.017-.2.07-.591l.017-.163L94.16,430.9l-.65-11.171v12.251H86.958l.229-12.863h-.843V431.2Z" transform="translate(-30.143 -158.47)" fill="#c6363b"/>
          <g id="Group_197" data-name="Group 197" transform="translate(88.561 264.375)" opacity="0.4">
            <g id="Group_196" data-name="Group 196">
              <g id="Group_195" data-name="Group 195" clip-path="url(#clip-path-72)">
                <path id="Path_382" data-name="Path 382" d="M142.939,433.165l2.243,1.672,17.37,67.324L152.6,439.316l-8.889-12.73-1.311-1.472Z" transform="translate(-142.405 -425.114)" fill="#13162c" fill-rule="evenodd"/>
              </g>
            </g>
          </g>
          <g id="Group_200" data-name="Group 200" transform="translate(0 368.592)" opacity="0.4" style="mix-blend-mode: multiply;isolation: isolate">
            <g id="Group_199" data-name="Group 199">
              <g id="Group_198" data-name="Group 198" clip-path="url(#clip-path-73)">
                <path id="Path_383" data-name="Path 383" d="M122.567,685.726l-6.484-93.031v78.079L68.2,678.2l-48.24-1.734,6.952-62.848L8.754,676.754,0,681.606Z" transform="translate(0 -592.695)" fill="#b8bbd5" fill-rule="evenodd"/>
              </g>
            </g>
          </g>
          <path id="Path_384" data-name="Path 384" d="M305.7,407.507s-27.556,22.455-83.835,27.254c0,0,51.947,1.08,83.835-27.254" transform="translate(-83.889 -154.082)" fill="#c6363b" fill-rule="evenodd"/>
          <g id="Group_203" data-name="Group 203" transform="translate(85.847 106.043)" opacity="0.4" style="mix-blend-mode: multiply;isolation: isolate">
            <g id="Group_202" data-name="Group 202">
              <g id="Group_201" data-name="Group 201" clip-path="url(#clip-path-74)">
                <path id="Path_385" data-name="Path 385" d="M179.343,170.516s.18,14.56,2.183,24.235l3.358,2.011a17.114,17.114,0,0,0,.764,3.476c.535,1.4,14.595,8.9,18.045,10.249,0,0-25.028,17.761-41.376,20.947s-24.275-2.58-24.275-2.58,11.624-17.355,22.716-27.361a21.035,21.035,0,0,0,.845-4.052c.21-2.14-2.146-12.067-2.146-12.067a45.923,45.923,0,0,0,19.886-14.858" transform="translate(-138.042 -170.516)" fill="#3e1c62" fill-rule="evenodd"/>
              </g>
            </g>
          </g>
          <path id="Path_386" data-name="Path 386" d="M305.548,314.214l-4.419-4.68s-24.78,9.675-30.261,30.166l3.685,5.9a92.018,92.018,0,0,1,31-31.383" transform="translate(-102.417 -117.037)" fill="#f8dfd8"/>
          <g id="Group_206" data-name="Group 206" transform="translate(216.195 288.739)" opacity="0.4" style="mix-blend-mode: multiply;isolation: isolate">
            <g id="Group_205" data-name="Group 205">
              <g id="Group_204" data-name="Group 204" clip-path="url(#clip-path-75)">
                <path id="Path_387" data-name="Path 387" d="M380.708,534.769c-.9,26.368-27.693,107.044-33.067,122.623,13.616-37.92,35.323-95.373,37.437-115.48,3.08-29.1-1.751-56.789-19.111-72.036a69.136,69.136,0,0,0-7.367-5.585c16.726,12.68,23.414,32.065,22.108,70.478" transform="translate(-347.641 -464.291)" fill="#5e1765" fill-rule="evenodd"/>
              </g>
            </g>
          </g>
          <g id="Group_209" data-name="Group 209" transform="translate(215.712 481.84)" opacity="0.4" style="mix-blend-mode: multiply;isolation: isolate">
            <g id="Group_208" data-name="Group 208">
              <g id="Group_207" data-name="Group 207" clip-path="url(#clip-path-76)">
                <path id="Path_388" data-name="Path 388" d="M346.865,776.156c.15-.453.331-.906.483-1.359-.211.513-.363,1-.483,1.359" transform="translate(-346.864 -774.797)" fill="#5e1765" fill-rule="evenodd"/>
              </g>
            </g>
          </g>
          <g id="Group_212" data-name="Group 212" transform="translate(16.866 264.375)" opacity="0.4" style="mix-blend-mode: multiply;isolation: isolate">
            <g id="Group_211" data-name="Group 211">
              <g id="Group_210" data-name="Group 210" clip-path="url(#clip-path-77)">
                <path id="Path_389" data-name="Path 389" d="M59.832,433.164s-6.816,3.159-9.914,7.6L27.12,569.356,40.229,446.909S54,429.011,59.835,425.114Z" transform="translate(-27.12 -425.114)" fill="#b8bbd5" fill-rule="evenodd"/>
              </g>
            </g>
          </g>
        </g>
      </g>
      <text id="F" transform="translate(31.004 373.092)" fill="#13162c" font-size="24" font-family="HarlowSolid, Harlow Solid"><tspan x="0" y="0">F</tspan></text>
      <text id="oo" transform="translate(52.212 371.092)" fill="#72c6e8" font-size="22" font-family="HarlowSolid, Harlow Solid"><tspan x="0" y="0">oo</tspan></text>
      <text id="dis" transform="translate(73.153 373.092)" fill="#13162c" font-size="24" font-family="HarlowSolid, Harlow Solid"><tspan x="0" y="0">dis</tspan></text>
      <g id="Group_216" data-name="Group 216">
        <g id="Group_215" data-name="Group 215" clip-path="url(#clip-path)">
          <path id="Path_390" data-name="Path 390" d="M147.7,582.382a1.867,1.867,0,1,1-1.863-1.99,1.93,1.93,0,0,1,1.863,1.99" transform="translate(-54.5 -220.098)" fill="#72c6e8"/>
        </g>
      </g>
    </g>
  </g>
</svg>
